<?xml version="1.0" encoding="UTF-8" standalone="no"?>
<!-- Created with Inkscape (http://www.inkscape.org/) -->

<svg
   xmlns:dc="http://purl.org/dc/elements/1.1/"
   xmlns:cc="http://creativecommons.org/ns#"
   xmlns:rdf="http://www.w3.org/1999/02/22-rdf-syntax-ns#"
   xmlns:svg="http://www.w3.org/2000/svg"
   xmlns="http://www.w3.org/2000/svg"
   version="1.1"
   width="433"
   height="214"
   id="svg2">
  <defs
     id="defs4" />
  <metadata
     id="metadata7">
    <rdf:RDF>
      <cc:Work
         rdf:about="">
        <dc:format>image/svg+xml</dc:format>
        <dc:type
           rdf:resource="http://purl.org/dc/dcmitype/StillImage" />
        <dc:title></dc:title>
      </cc:Work>
    </rdf:RDF>
  </metadata>
  <g id="layer1">
    <path
       d="M 90,200 C 58,198 27,177 18,146 7,109 7,70 12,32 10,11 33,9 49,8 c 24,-1 50,-3 74,5 11,11 9,30 11,44 2,20 -1,39 0,59 12,10 31,-3 43,-10 45,-30 85,-69 139,-83 30,-9 62,-9 93,-9 17,-12 37,19 14,23 -34,-6 -69,6 -99,21 -40,25 -65,67 -102,97 -32,28 -73,46 -116,45 -6,0 -11,0 -17,-1 z"
       id="path2996"
       style="fill:#000000" />
  </g>
</svg>
